<svg width="42" height="42" viewBox="0 0 42 42" fill="none" xmlns="http://www.w3.org/2000/svg">
<path d="M16.75 17.8125C16.75 16.6391 15.7984 15.6875 14.625 15.6875H13.5625C11.215 15.6875 9.3125 17.59 9.3125 19.9375V23.125C9.3125 25.4725 11.215 27.375 13.5625 27.375H14.625C15.7984 27.375 16.75 26.4234 16.75 25.25V17.8125ZM28.4375 27.375C30.785 27.375 32.6875 25.4725 32.6875 23.125V19.9375C32.6875 17.59 30.785 15.6875 28.4375 15.6875H27.375C26.2016 15.6875 25.25 16.6391 25.25 17.8125V25.25C25.25 26.4234 26.2016 27.375 27.375 27.375H28.4375ZM21 4C11.5159 4 4.30414 11.8911 4 21V22.0625C4 22.6495 4.47547 23.125 5.0625 23.125H6.125C6.71203 23.125 7.1875 22.6495 7.1875 22.0625V21C7.1875 13.3839 13.3839 7.1875 21 7.1875C28.6161 7.1875 34.8125 13.3839 34.8125 21H34.8045C34.8098 21.1614 34.8125 32.0048 34.8125 32.0048C34.8125 33.5554 33.5554 34.8125 32.0048 34.8125H25.25C25.25 33.0521 23.8229 31.625 22.0625 31.625H19.9375C18.1771 31.625 16.75 33.0521 16.75 34.8125C16.75 36.5729 18.1771 38 19.9375 38H32.0048C35.3159 38 38 35.3159 38 32.0048V21C37.6959 11.8911 30.4841 4 21 4Z" fill="#0D0C34"/>
</svg>
